<svg xmlns="http://www.w3.org/2000/svg" viewBox="0 0 200 400" width="200" height="400">
  <!-- Front Double Bicep Pose - Placeholder silhouette -->
  <g fill="#FFFFFF" opacity="1">
    <!-- Head -->
    <circle cx="100" cy="45" r="22" />
    <!-- Neck -->
    <rect x="92" y="67" width="16" height="15" rx="4" />
    <!-- Torso -->
    <path d="M70 82 L130 82 L125 200 L75 200 Z" />
    <!-- Left arm (raised, flexed) -->
    <path d="M70 82 L55 85 L40 75 L35 55 L42 40 L52 48 L50 70 L65 82 Z" />
    <!-- Left forearm -->
    <path d="M42 40 L38 35 L45 25 L52 30 L52 48 Z" />
    <!-- Right arm (raised, flexed) -->
    <path d="M130 82 L145 85 L160 75 L165 55 L158 40 L148 48 L150 70 L135 82 Z" />
    <!-- Right forearm -->
    <path d="M158 40 L162 35 L155 25 L148 30 L148 48 Z" />
    <!-- Left leg -->
    <path d="M75 200 L85 200 L88 320 L95 380 L80 382 L78 320 L72 200 Z" />
    <!-- Right leg -->
    <path d="M115 200 L125 200 L128 200 L122 320 L120 382 L105 380 L112 320 Z" />
  </g>
</svg>
